PathFileType	4	(X/Y/Z) shrug_2kg_3.trc																										
DataRate	CameraRate	NumFrames	NumMarkers	Units	OrigDataRate	OrigDataStartFrame	OrigNumFrames																					
100	100	19	9	mm	100	140	556																					
Frame#	Time	gu			centelbow			EpL			centpxt8			centijc7			ij			ts			aa			ai		
		X1	Y1	Z1	X2	Y2	Z2	X3	Y3	Z3	X4	Y4	Z4	X5	Y5	Z5	X6	Y6	Z6	X7	Y7	Z7	X8	Y8	Z8	X9	Y9	Z9  
139	1.39	-110.333	-6.017	157.966	-130.932	-250.225	188.337	-121.361	-243.265	218.326	-46.816	-153.158	-8.669	-46.816	31.938	-8.669	0	0	0	-131.78	33.145	29.755	-140.07	34.786	148.723	-148.991	-78.919	35.327
140	1.4	-110.144	-1.676	155.352	-124.351	-245.995	188.382	-115.707	-238.39	218.497	-46.816	-153.158	-8.669	-46.816	31.938	-8.669	0	0	0	-130.453	33.37	28.604	-140.741	36.523	147.386	-145.237	-78.964	35.539
141	1.41	-109.557	2.063	153.393	-118.404	-242.185	188.735	-110.462	-234.069	218.909	-46.816	-153.158	-8.669	-46.816	31.938	-8.669	0	0	0	-128.958	33.99	26.938	-140.902	38.713	145.513	-141.431	-78.519	35.406
142	1.42	-109.227	6.221	151.663	-113.551	-237.859	188.954	-106.137	-229.337	219.151	-46.816	-153.158	-8.669	-46.816	31.938	-8.669	0	0	0	-127.67	35.598	24.891	-141.058	41.886	143.238	-137.997	-76.997	34.958
143	1.43	-109.561	11.297	149.858	-109.987	-232.57	188.754	-103.031	-223.72	218.965	-46.816	-153.158	-8.669	-46.816	31.938	-8.669	0	0	0	-126.666	37.949	22.884	-141.376	45.704	140.987	-135.202	-74.65	34.478
144	1.44	-110.092	15.782	148.691	-107.698	-227.868	188.859	-101.174	-218.772	219.094	-46.816	-153.158	-8.669	-46.816	31.938	-8.669	0	0	0	-125.594	39.735	21.491	-141.547	48.851	139.335	-132.966	-72.794	34.472
145	1.45	-110.303	18.366	148.812	-106.522	-225.092	190.021	-100.401	-215.823	220.287	-46.816	-153.158	-8.669	-46.816	31.938	-8.669	0	0	0	-124.369	40.371	20.777	-141.491	50.796	138.348	-131.189	-72.038	35.038
146	1.46	-110.422	19.73	149.525	-106.179	-223.558	191.681	-100.41	-214.155	221.975	-46.816	-153.158	-8.669	-46.816	31.938	-8.669	0	0	0	-123.381	40.588	20.145	-141.575	52.306	137.433	-129.939	-71.672	35.644
147	1.47	-110.784	20.761	149.789	-106.266	-222.366	192.836	-100.775	-212.842	223.143	-46.816	-153.158	-8.669	-46.816	31.938	-8.669	0	0	0	-122.851	40.853	19.203	-141.982	53.815	136.211	-129.192	-71.248	35.897
148	1.48	-111.178	21.297	149.464	-106.343	-221.679	193.322	-101.052	-212.044	223.631	-46.816	-153.158	-8.669	-46.816	31.938	-8.669	0	0	0	-122.509	40.801	18.092	-142.434	54.918	134.833	-128.681	-71.138	35.899
149	1.49	-111.316	21.375	148.931	-106.169	-221.464	193.508	-101.03	-211.731	223.811	-46.816	-153.158	-8.669	-46.816	31.938	-8.669	0	0	0	-122.006	40.313	17.06	-142.627	55.504	133.545	-128.135	-71.461	35.888
150	1.5	-111.374	21.513	148.59	-105.978	-221.209	193.766	-100.982	-211.396	224.067	-46.816	-153.158	-8.669	-46.816	31.938	-8.669	0	0	0	-121.349	39.694	16.385	-142.669	55.9	132.607	-127.593	-71.913	36.15
151	1.51	-111.74	21.697	148.6	-106.274	-220.935	194.252	-101.419	-211.06	224.556	-46.816	-153.158	-8.669	-46.816	31.938	-8.669	0	0	0	-120.914	39.055	16.123	-142.947	56.24	132.072	-127.407	-72.378	36.767
152	1.52	-112.523	21.608	148.615	-107.217	-220.953	194.665	-102.47	-211.03	224.971	-46.816	-153.158	-8.669	-46.816	31.938	-8.669	0	0	0	-121.018	38.509	15.819	-143.641	56.644	131.509	-127.799	-72.747	37.307
153	1.53	-113.424	21.564	148.224	-108.354	-220.928	194.66	-103.667	-210.961	224.96	-46.816	-153.158	-8.669	-46.816	31.938	-8.669	0	0	0	-121.489	38.371	15.117	-144.469	57.374	130.597	-128.485	-72.718	37.389
154	1.54	-113.997	22.115	147.526	-109.102	-220.298	194.391	-104.439	-210.281	224.679	-46.816	-153.158	-8.669	-46.816	31.938	-8.669	0	0	0	-121.799	38.658	14.296	-144.954	58.385	129.619	-128.93	-72.287	37.232
155	1.55	-114.145	23.125	147.017	-109.451	-219.194	194.39	-104.796	-209.117	224.658	-46.816	-153.158	-8.669	-46.816	31.938	-8.669	0	0	0	-121.679	38.972	13.893	-144.943	59.3	129.09	-128.967	-71.849	37.374
156	1.56	-114.117	24.23	146.956	-109.776	-217.97	194.965	-105.118	-207.82	225.209	-46.816	-153.158	-8.669	-46.816	31.938	-8.669	0	0	0	-121.327	39.031	14.11	-144.696	59.924	129.185	-128.852	-71.668	38.082
157	1.57	-114.052	25.622	146.917	-110.128	-216.423	195.735	-105.444	-206.18	225.944	-46.816	-153.158	-8.669	-46.816	31.938	-8.669	0	0	0	-120.989	38.962	14.545	-144.438	60.441	129.496	-128.759	-71.608	39.029
